<?xml version="1.0" encoding="utf-8"?>
<!-- Generator: Adobe Illustrator 25.0.1, SVG Export Plug-In . SVG Version: 6.00 Build 0)  -->
<svg version="1.1" id="Layer_1" xmlns="http://www.w3.org/2000/svg" xmlns:xlink="http://www.w3.org/1999/xlink" x="0px" y="0px"
	 viewBox="0 0 18 18" style="enable-background:new 0 0 18 18;" xml:space="preserve">
<style type="text/css">
	.st0{fill:#F7BC01;}
</style>
<g id="g4" transform="matrix(1,0,0,-1,60.745763,1353.7627)">
	<path class="st0" d="M-43.4,1346.5c0-0.1-0.1-0.3-0.3-0.5l-3.6-3.6l0.9-5c0,0,0-0.1,0-0.2c0-0.1,0-0.3-0.1-0.4s-0.2-0.1-0.3-0.1
		c-0.1,0-0.3,0-0.4,0.1l-4.5,2.4l-4.5-2.4c-0.1-0.1-0.3-0.1-0.4-0.1c-0.1,0-0.2,0-0.3,0.1s-0.1,0.2-0.1,0.4c0,0,0,0.1,0,0.2l0.9,5
		l-3.7,3.6c-0.2,0.2-0.3,0.3-0.3,0.5c0,0.2,0.2,0.4,0.6,0.5l5,0.7l2.3,4.6c0.1,0.3,0.3,0.4,0.5,0.4s0.4-0.1,0.5-0.4l2.3-4.6l5-0.7
		C-43.6,1346.9-43.4,1346.8-43.4,1346.5z"/>
</g>
</svg>
